<?xml version="1.0" encoding="UTF-8"?>
<svg xmlns="http://www.w3.org/2000/svg" width="218" height="36" viewBox="0 0 218 36" fill="none">
  <path fill-rule="evenodd" clip-rule="evenodd" d="M24.8107 20.1083C24.7789 20.1083 24.7407 20.0956 24.7216 20.0639C24.7026 20.0385 24.6962 20.0004 24.7026 19.9687C25.3066 18.0272 25.5101 15.9841 25.3003 13.9664C25.3003 13.9283 25.2748 13.8966 25.2367 13.8839C23.221 12.9448 21.9303 10.9335 21.9175 8.71906C21.9175 7.97035 22.0574 7.23433 22.3372 6.54273C22.3499 6.50466 22.3499 6.46659 22.3245 6.43486C21.9811 5.99071 21.6187 5.55925 21.2308 5.15317C19.0244 2.83725 16.1377 1.27639 12.9902 0.686302C12.9393 0.679957 12.9012 0.635542 12.9012 0.578437C12.9012 0.527677 12.933 0.483262 12.9839 0.470572C17.492 -0.690561 22.2863 0.324637 25.9361 3.21161C25.9552 3.2243 25.9806 3.23699 25.9997 3.23699C26.0124 3.23699 26.0188 3.23699 26.0315 3.23699C26.5465 3.07836 27.087 3.00222 27.6275 3.00222C29.9738 2.99588 32.0911 4.4235 32.9559 6.59983C33.8206 8.77616 33.2675 11.2634 31.557 12.8687C31.5316 12.8941 31.5189 12.9258 31.5252 12.9575C31.6143 13.6174 31.6588 14.2836 31.6651 14.9562C31.6651 15.0196 31.6651 15.0767 31.6588 15.1402V15.2544C31.6588 15.2544 31.6397 15.2988 31.627 15.3178C29.8593 17.5132 27.5067 19.1693 24.8425 20.102H24.8043L24.8107 20.1083ZM6.05946 25.4318C6.05946 25.4318 6.00223 25.4191 5.98315 25.4C2.74668 22.1197 1.21428 17.5196 1.84377 12.9575C1.84377 12.9258 1.83742 12.8877 1.81198 12.8687C-0.12736 11.0604 -0.559737 8.1607 0.756471 5.86381C2.07268 3.56693 4.79412 2.47559 7.33751 3.2243C7.36931 3.23699 7.40746 3.2243 7.43289 3.20526C8.0751 2.69766 8.75546 2.24717 9.46761 1.84743C9.48033 1.84109 9.4994 1.83474 9.51848 1.83474C12.3162 2.2662 14.9423 3.47175 17.0914 5.31814C17.1232 5.34352 17.136 5.38794 17.1232 5.42601C17.1169 5.46408 17.0851 5.4958 17.0406 5.50215C15.0249 5.95264 13.1237 6.82191 11.4578 8.04014C11.426 8.05918 11.4133 8.09725 11.4133 8.13532C11.4324 8.32567 11.4451 8.52236 11.4451 8.71271C11.426 11.5489 9.33408 13.9473 6.51727 14.3534C6.47912 14.3534 6.44732 14.3851 6.43461 14.4169C6.23114 14.9054 6.0531 15.4194 5.90685 15.927C5.00395 18.9916 5.09296 22.2656 6.16119 25.2795C6.17391 25.3112 6.16755 25.3493 6.14848 25.3747C6.1294 25.4 6.09125 25.4191 6.05946 25.4191V25.4318ZM16.7417 33.2678C14.0966 33.2678 11.7885 31.4595 11.1653 28.8898C11.159 28.858 11.1335 28.8263 11.1017 28.8136C10.3451 28.5091 9.62021 28.1474 8.92714 27.7286C8.90806 27.716 8.88899 27.6969 8.88263 27.6779C7.86527 25.0511 7.60457 22.1958 8.13233 19.4294C8.13868 19.3913 8.17048 19.3596 8.20863 19.3469H8.2277C8.2595 19.3469 8.29129 19.3533 8.31672 19.3786C9.71559 20.8887 11.4133 22.0943 13.3018 22.9255C13.3145 22.9255 13.3272 22.9318 13.3463 22.9318C13.3717 22.9318 13.3908 22.9255 13.4099 22.9128C15.9024 21.1299 19.3614 21.6248 21.2499 24.0359C21.269 24.0612 21.3008 24.0803 21.3326 24.0739H21.3453C21.8667 24.0041 22.4008 23.9026 22.9222 23.7757C26.0378 23.0207 28.8419 21.3012 30.9275 18.871C30.9466 18.8457 30.9784 18.833 31.0102 18.833C31.0293 18.833 31.0483 18.833 31.0611 18.8457C31.1056 18.871 31.1246 18.9218 31.1119 18.9662C29.8529 23.395 26.6355 27.0117 22.3754 28.7756C22.3436 28.7883 22.3181 28.8136 22.3118 28.8517C21.7077 31.4278 19.4059 33.2551 16.7544 33.2615L16.7417 33.2678Z" fill="#FF6300"></path>
  <path d="M217.111 28.7914C216.747 28.9567 216.053 29.089 215.292 29.089C212.382 29.089 210.597 27.5018 210.597 24.2612V13.1507H208.017V11.0675H210.597V6.76878L213.275 5.87598V11.0675H217.111V13.1507H213.275V24.1289C213.275 25.9476 214.498 26.642 215.953 26.642C216.383 26.642 216.846 26.5759 217.111 26.4767V28.7914Z" fill="#FF6300"></path>
  <path d="M205.842 27.9978C204.486 28.6922 201.94 29.2543 199.328 29.2543C194.897 29.2543 192.45 27.3034 192.45 23.0047V11.0675H195.228V23.0377C195.228 25.6831 196.583 26.9396 199.328 26.9396C200.948 26.9396 202.403 26.642 203.098 26.3444V11.0675H205.842V27.9978Z" fill="#FF6300"></path>
  <path d="M189.591 19.9625C189.591 25.2533 186.946 29.2544 182.019 29.2544C177.092 29.2544 174.447 25.2533 174.447 19.9625C174.447 14.6718 177.092 10.7038 182.019 10.7038C186.946 10.7038 189.591 14.6718 189.591 19.9625ZM186.847 19.9295C186.847 15.8292 185.259 12.9523 182.019 12.9523C178.778 12.9523 177.191 15.8292 177.191 19.9295C177.191 24.0298 178.778 26.9727 182.019 26.9727C185.259 26.9727 186.847 24.0298 186.847 19.9295Z" fill="#FF6300"></path>
  <path d="M173.21 28.0309C172.02 28.8575 170.466 29.2544 168.779 29.2544C164.977 29.2544 161.141 26.5098 161.141 19.9625C161.141 13.4153 164.977 10.7038 168.779 10.7038C170.466 10.7038 172.02 11.1006 173.21 11.9273L172.251 13.9444C171.392 13.3492 170.301 13.0185 169.077 13.0185C166.531 13.0185 163.985 14.9364 163.985 19.9295C163.985 24.9226 166.564 26.9066 169.077 26.9066C170.301 26.9066 171.392 26.5429 172.251 25.9477L173.21 28.0309Z" fill="#FF6300"></path>
  <path d="M159.054 24.129C159.054 27.2042 156.607 29.2544 152.407 29.2544C150.555 29.2544 148.704 28.8245 147.116 27.9978L148.108 25.8815C149.299 26.5429 150.952 27.0058 152.374 27.0058C154.656 27.0058 156.177 25.8815 156.177 24.129C156.177 22.2442 154.656 21.5167 152.572 20.7561C150.059 19.8303 147.579 18.706 147.579 15.4985C147.579 12.7209 149.729 10.7038 153.498 10.7038C155.317 10.7038 157.103 11.1667 158.458 11.9603L157.499 13.9113C156.507 13.283 155.185 12.8531 153.763 12.8531C151.613 12.8531 150.39 14.0105 150.39 15.4985C150.39 17.4495 152.01 18.1108 153.895 18.8052C156.54 19.7972 159.054 20.7892 159.054 24.129Z" fill="#FF6300"></path>
  <path d="M146.226 11.0675L136.901 36H134.025L136.703 28.8906L130.024 11.0675H133.033L137.464 24.0297C137.728 24.7903 137.96 25.8154 138.092 26.5759H138.158C138.224 26.2122 138.456 25.0218 138.786 24.0297L143.184 11.0675H146.226Z" fill="#FF6300"></path>
  <path d="M129.125 11.0675L123.703 28.8906H120.892L117.254 16.4574C117.023 15.6638 116.792 14.4734 116.725 14.0105H116.659C116.527 14.6387 116.428 15.3331 116.097 16.4574L112.46 28.8906H109.649L104.226 11.0675H107.004L110.509 23.666C110.839 24.8564 110.972 25.8154 111.071 26.3775H111.137C111.236 25.8154 111.435 24.7242 111.732 23.666L115.37 11.0675H118.015L121.619 23.666C121.95 24.8564 122.148 25.9146 122.248 26.3775H122.314C122.38 25.8484 122.611 24.5258 122.843 23.666L126.381 11.0675H129.125Z" fill="#FF6300"></path>
  <path d="M101.446 28.8906H95.0306V2.93304H101.446V28.8906Z" fill="white"></path>
  <path d="M91.7607 27.9978C90.2396 28.7583 87.5281 29.3205 84.3868 29.3205C78.3024 29.3205 75.0288 26.0799 75.0288 19.9625C75.0288 14.4403 77.8726 10.9022 83.4609 10.9022C84.0892 10.9022 84.8828 11.0344 85.3457 11.1667V2.93304H91.7607V27.9978ZM85.3457 24.2282V15.8292C85.1473 15.73 84.6513 15.6308 84.1884 15.6308C82.4027 15.6308 81.4438 17.3172 81.4438 19.8964C81.4438 22.9385 82.4358 24.3604 84.2545 24.3604C84.6844 24.3604 85.1142 24.3274 85.3457 24.2282Z" fill="white"></path>
  <path d="M72.4786 27.9978C70.7592 28.7914 67.6839 29.3205 64.7079 29.3205C59.2188 29.3205 56.4742 27.3364 56.4742 22.3433V11.0675H62.8892V22.5087C62.8892 23.6329 63.5175 24.1289 64.7079 24.1289C65.3031 24.1289 65.7991 24.0628 66.0637 23.9636V11.0675H72.4786V27.9978Z" fill="white"></path>
  <path d="M53.3651 28.8906H46.9501V17.6148C46.9501 16.3913 46.3549 15.73 44.9991 15.73C44.5031 15.73 44.0071 15.8292 43.6434 15.9945V28.8906H37.2284V2.93304H43.6434V11.3651C44.5693 11.0014 45.6935 10.7699 46.8178 10.7699C51.1165 10.7699 53.3651 12.9523 53.3651 16.9204V28.8906Z" fill="white"></path>
</svg>
